<svg id="visual" viewBox="0 0 900 600" width="900" height="600" xmlns="http://www.w3.org/2000/svg" xmlns:xlink="http://www.w3.org/1999/xlink" version="1.1"><path d="M0 389L129 408L257 409L386 308L514 340L643 369L771 416L900 371L900 0L771 0L643 0L514 0L386 0L257 0L129 0L0 0Z" fill="#bb7b58"></path><path d="M0 310L129 367L257 325L386 323L514 357L643 263L771 264L900 369L900 0L771 0L643 0L514 0L386 0L257 0L129 0L0 0Z" fill="#ca8d61"></path><path d="M0 273L129 207L257 240L386 277L514 284L643 199L771 234L900 178L900 0L771 0L643 0L514 0L386 0L257 0L129 0L0 0Z" fill="#d9a06a"></path><path d="M0 153L129 115L257 195L386 125L514 107L643 146L771 128L900 105L900 0L771 0L643 0L514 0L386 0L257 0L129 0L0 0Z" fill="#e6b374"></path><path d="M0 69L129 59L257 115L386 54L514 90L643 112L771 47L900 53L900 0L771 0L643 0L514 0L386 0L257 0L129 0L0 0Z" fill="#f3c77f"></path></svg>