<svg id="visual" viewBox="0 0 1920 1080" width="1920" height="1080" xmlns="http://www.w3.org/2000/svg" xmlns:xlink="http://www.w3.org/1999/xlink" version="1.1"><g stroke-width="1" stroke-linejoin="bevel"><path d="M1034 561L1109 523L1040 478Z" fill="#f1d6ab" stroke="#f1d6ab"></path><path d="M1040 478L934 454L1034 561Z" fill="#f3ddbb" stroke="#f3ddbb"></path><path d="M1034 561L1184 649L1109 523Z" fill="#f3ddbb" stroke="#f3ddbb"></path><path d="M934 454L933 649L1034 561Z" fill="#f2dbb5" stroke="#f2dbb5"></path><path d="M1034 561L1172 670L1184 649Z" fill="#f2dbb5" stroke="#f2dbb5"></path><path d="M1066 760L1172 670L1034 561Z" fill="#f5e4ca" stroke="#f5e4ca"></path><path d="M1319 512L1240 574L1403 636Z" fill="#f5e7cf" stroke="#f5e7cf"></path><path d="M1184 649L1240 574L1109 523Z" fill="#f3e0c0" stroke="#f3e0c0"></path><path d="M1109 523L1126 340L1040 478Z" fill="#f1d6ab" stroke="#f1d6ab"></path><path d="M1305 398L1126 340L1109 523Z" fill="#f5e4ca" stroke="#f5e4ca"></path><path d="M1040 478L985 328L934 454Z" fill="#f5e4ca" stroke="#f5e4ca"></path><path d="M1126 340L985 328L1040 478Z" fill="#f2d8b0" stroke="#f2d8b0"></path><path d="M933 649L1066 760L1034 561Z" fill="#f2d8b0" stroke="#f2d8b0"></path><path d="M1253 703L1240 574L1184 649Z" fill="#f7eedf" stroke="#f7eedf"></path><path d="M1240 574L1305 398L1109 523Z" fill="#f1d6ab" stroke="#f1d6ab"></path><path d="M1144 865L1253 703L1172 670Z" fill="#f2dbb5" stroke="#f2dbb5"></path><path d="M1172 670L1253 703L1184 649Z" fill="#f4e2c5" stroke="#f4e2c5"></path><path d="M985 328L845 366L934 454Z" fill="#f6ecda" stroke="#f6ecda"></path><path d="M934 454L785 557L933 649Z" fill="#f2d8b0" stroke="#f2d8b0"></path><path d="M845 366L790 500L934 454Z" fill="#f5e4ca" stroke="#f5e4ca"></path><path d="M1319 512L1305 398L1240 574Z" fill="#f1d6ab" stroke="#f1d6ab"></path><path d="M790 500L785 557L934 454Z" fill="#f1d6ab" stroke="#f1d6ab"></path><path d="M933 649L1047 806L1066 760Z" fill="#f2dbb5" stroke="#f2dbb5"></path><path d="M845 757L1047 806L933 649Z" fill="#f3ddbb" stroke="#f3ddbb"></path><path d="M1066 760L1144 865L1172 670Z" fill="#f2dbb5" stroke="#f2dbb5"></path><path d="M1305 398L1264 284L1126 340Z" fill="#f5e7cf" stroke="#f5e7cf"></path><path d="M1126 340L986 187L985 328Z" fill="#f7eedf" stroke="#f7eedf"></path><path d="M785 557L845 757L933 649Z" fill="#f4e2c5" stroke="#f4e2c5"></path><path d="M869 224L797 340L845 366Z" fill="#f7eedf" stroke="#f7eedf"></path><path d="M845 366L797 340L790 500Z" fill="#f7eedf" stroke="#f7eedf"></path><path d="M654 481L690 599L785 557Z" fill="#f6ecda" stroke="#f6ecda"></path><path d="M869 224L845 366L985 328Z" fill="#f3e0c0" stroke="#f3e0c0"></path><path d="M1202 194L986 187L1126 340Z" fill="#f6ecda" stroke="#f6ecda"></path><path d="M1032 932L1144 865L1047 806Z" fill="#f6ecda" stroke="#f6ecda"></path><path d="M1047 806L1144 865L1066 760Z" fill="#f1d6ab" stroke="#f1d6ab"></path><path d="M986 187L869 224L985 328Z" fill="#f6ecda" stroke="#f6ecda"></path><path d="M1264 284L1202 194L1126 340Z" fill="#f3e0c0" stroke="#f3e0c0"></path><path d="M1422 758L1403 636L1253 703Z" fill="#f3ddbb" stroke="#f3ddbb"></path><path d="M1253 703L1403 636L1240 574Z" fill="#f6ecda" stroke="#f6ecda"></path><path d="M1319 512L1449 520L1305 398Z" fill="#f5e7cf" stroke="#f5e7cf"></path><path d="M1305 398L1443 345L1264 284Z" fill="#f2dbb5" stroke="#f2dbb5"></path><path d="M1144 865L1297 816L1253 703Z" fill="#f3e0c0" stroke="#f3e0c0"></path><path d="M654 481L785 557L790 500Z" fill="#f3e0c0" stroke="#f3e0c0"></path><path d="M785 557L718 710L845 757Z" fill="#f6ecda" stroke="#f6ecda"></path><path d="M794 881L909 878L845 757Z" fill="#f5e4ca" stroke="#f5e4ca"></path><path d="M845 757L909 878L1047 806Z" fill="#f6e9d5" stroke="#f6e9d5"></path><path d="M1403 636L1449 520L1319 512Z" fill="#f5e7cf" stroke="#f5e7cf"></path><path d="M1264 284L1290 79L1202 194Z" fill="#f4e2c5" stroke="#f4e2c5"></path><path d="M690 599L718 710L785 557Z" fill="#f6e9d5" stroke="#f6e9d5"></path><path d="M869 224L766 255L797 340Z" fill="#f2d8b0" stroke="#f2d8b0"></path><path d="M797 340L654 481L790 500Z" fill="#f5e7cf" stroke="#f5e7cf"></path><path d="M748 130L766 255L869 224Z" fill="#f6e9d5" stroke="#f6e9d5"></path><path d="M625 344L654 481L797 340Z" fill="#f3ddbb" stroke="#f3ddbb"></path><path d="M619 713L689 811L718 710Z" fill="#f2dbb5" stroke="#f2dbb5"></path><path d="M909 878L1032 932L1047 806Z" fill="#f6e9d5" stroke="#f6e9d5"></path><path d="M1144 865L1311 982L1297 816Z" fill="#f6e9d5" stroke="#f6e9d5"></path><path d="M1202 194L1055 106L986 187Z" fill="#f1d6ab" stroke="#f1d6ab"></path><path d="M986 187L903 98L869 224Z" fill="#f2d8b0" stroke="#f2d8b0"></path><path d="M1449 520L1443 345L1305 398Z" fill="#f2d8b0" stroke="#f2d8b0"></path><path d="M1297 816L1422 758L1253 703Z" fill="#f3ddbb" stroke="#f3ddbb"></path><path d="M1403 636L1486 648L1449 520Z" fill="#f5e4ca" stroke="#f5e4ca"></path><path d="M1202 194L1128 94L1055 106Z" fill="#f5e4ca" stroke="#f5e4ca"></path><path d="M1290 79L1128 94L1202 194Z" fill="#f3e0c0" stroke="#f3e0c0"></path><path d="M1422 758L1486 648L1403 636Z" fill="#f6ecda" stroke="#f6ecda"></path><path d="M1449 520L1522 457L1443 345Z" fill="#f5e7cf" stroke="#f5e7cf"></path><path d="M689 811L794 881L845 757Z" fill="#f7eedf" stroke="#f7eedf"></path><path d="M909 878L932 959L1032 932Z" fill="#f7eedf" stroke="#f7eedf"></path><path d="M1040 0L903 98L1055 106Z" fill="#f2d8b0" stroke="#f2d8b0"></path><path d="M1055 106L903 98L986 187Z" fill="#f6e9d5" stroke="#f6e9d5"></path><path d="M794 881L932 959L909 878Z" fill="#f6e9d5" stroke="#f6e9d5"></path><path d="M1486 648L1522 457L1449 520Z" fill="#f6e9d5" stroke="#f6e9d5"></path><path d="M1422 758L1503 668L1486 648Z" fill="#f3e0c0" stroke="#f3e0c0"></path><path d="M1486 648L1665 522L1522 457Z" fill="#f4e2c5" stroke="#f4e2c5"></path><path d="M656 260L625 344L797 340Z" fill="#f3ddbb" stroke="#f3ddbb"></path><path d="M656 260L797 340L766 255Z" fill="#f5e7cf" stroke="#f5e7cf"></path><path d="M718 710L689 811L845 757Z" fill="#f3e0c0" stroke="#f3e0c0"></path><path d="M619 713L718 710L690 599Z" fill="#f1d6ab" stroke="#f1d6ab"></path><path d="M619 713L690 599L517 650Z" fill="#f3ddbb" stroke="#f3ddbb"></path><path d="M548 515L690 599L654 481Z" fill="#f5e7cf" stroke="#f5e7cf"></path><path d="M748 130L656 260L766 255Z" fill="#f7eedf" stroke="#f7eedf"></path><path d="M1496 234L1446 225L1443 345Z" fill="#f5e4ca" stroke="#f5e4ca"></path><path d="M1443 345L1446 225L1264 284Z" fill="#f4e2c5" stroke="#f4e2c5"></path><path d="M1004 1080L1142 1005L1032 932Z" fill="#f6e9d5" stroke="#f6e9d5"></path><path d="M1032 932L1142 1005L1144 865Z" fill="#f4e2c5" stroke="#f4e2c5"></path><path d="M1297 816L1395 890L1422 758Z" fill="#f2dbb5" stroke="#f2dbb5"></path><path d="M1395 914L1395 890L1311 982Z" fill="#f3e0c0" stroke="#f3e0c0"></path><path d="M1422 758L1524 816L1503 668Z" fill="#f1d6ab" stroke="#f1d6ab"></path><path d="M1446 225L1290 79L1264 284Z" fill="#f3ddbb" stroke="#f3ddbb"></path><path d="M1128 94L1040 0L1055 106Z" fill="#f4e2c5" stroke="#f4e2c5"></path><path d="M903 98L748 130L869 224Z" fill="#f5e7cf" stroke="#f5e7cf"></path><path d="M475 396L548 515L625 344Z" fill="#f4e2c5" stroke="#f4e2c5"></path><path d="M625 344L548 515L654 481Z" fill="#f3e0c0" stroke="#f3e0c0"></path><path d="M1311 982L1395 890L1297 816Z" fill="#f1d6ab" stroke="#f1d6ab"></path><path d="M1395 890L1524 816L1422 758Z" fill="#f6ecda" stroke="#f6ecda"></path><path d="M1522 457L1548 348L1443 345Z" fill="#f7eedf" stroke="#f7eedf"></path><path d="M1690 368L1548 348L1522 457Z" fill="#f6ecda" stroke="#f6ecda"></path><path d="M1548 348L1496 234L1443 345Z" fill="#f5e7cf" stroke="#f5e7cf"></path><path d="M1446 225L1381 68L1290 79Z" fill="#f4e2c5" stroke="#f4e2c5"></path><path d="M1134 0L1040 0L1128 94Z" fill="#f6ecda" stroke="#f6ecda"></path><path d="M903 98L757 0L748 130Z" fill="#f2dbb5" stroke="#f2dbb5"></path><path d="M1142 1005L1311 982L1144 865Z" fill="#f6ecda" stroke="#f6ecda"></path><path d="M1239 0L1134 0L1128 94Z" fill="#f6ecda" stroke="#f6ecda"></path><path d="M643 969L736 940L689 811Z" fill="#f1d6ab" stroke="#f1d6ab"></path><path d="M689 811L736 940L794 881Z" fill="#f1d6ab" stroke="#f1d6ab"></path><path d="M794 881L736 940L932 959Z" fill="#f3ddbb" stroke="#f3ddbb"></path><path d="M932 959L1004 1080L1032 932Z" fill="#f6ecda" stroke="#f6ecda"></path><path d="M1040 0L919 0L903 98Z" fill="#f3ddbb" stroke="#f3ddbb"></path><path d="M1512 986L1524 816L1395 890Z" fill="#f4e2c5" stroke="#f4e2c5"></path><path d="M1683 596L1665 522L1486 648Z" fill="#f3e0c0" stroke="#f3e0c0"></path><path d="M1512 986L1395 890L1395 914Z" fill="#f1d6ab" stroke="#f1d6ab"></path><path d="M1402 0L1239 0L1290 79Z" fill="#f2d8b0" stroke="#f2d8b0"></path><path d="M1290 79L1239 0L1128 94Z" fill="#f4e2c5" stroke="#f4e2c5"></path><path d="M1567 67L1381 68L1446 225Z" fill="#f4e2c5" stroke="#f4e2c5"></path><path d="M548 515L517 650L690 599Z" fill="#f2dbb5" stroke="#f2dbb5"></path><path d="M494 843L643 969L689 811Z" fill="#f6e9d5" stroke="#f6e9d5"></path><path d="M863 1080L1004 1080L932 959Z" fill="#f4e2c5" stroke="#f4e2c5"></path><path d="M1142 1005L1252 1080L1311 982Z" fill="#f6ecda" stroke="#f6ecda"></path><path d="M1004 1080L1119 1080L1142 1005Z" fill="#f5e4ca" stroke="#f5e4ca"></path><path d="M1119 1080L1252 1080L1142 1005Z" fill="#f7eedf" stroke="#f7eedf"></path><path d="M1436 1080L1512 986L1395 914Z" fill="#f2dbb5" stroke="#f2dbb5"></path><path d="M664 79L534 250L656 260Z" fill="#f7eedf" stroke="#f7eedf"></path><path d="M656 260L534 250L625 344Z" fill="#f3ddbb" stroke="#f3ddbb"></path><path d="M548 515L390 561L517 650Z" fill="#f3ddbb" stroke="#f3ddbb"></path><path d="M664 79L656 260L748 130Z" fill="#f1d6ab" stroke="#f1d6ab"></path><path d="M807 1080L863 1080L932 959Z" fill="#f6e9d5" stroke="#f6e9d5"></path><path d="M757 0L664 79L748 130Z" fill="#f2dbb5" stroke="#f2dbb5"></path><path d="M534 250L475 396L625 344Z" fill="#f1d6ab" stroke="#f1d6ab"></path><path d="M919 0L757 0L903 98Z" fill="#f4e2c5" stroke="#f4e2c5"></path><path d="M1683 596L1486 648L1503 668Z" fill="#f3e0c0" stroke="#f3e0c0"></path><path d="M1548 348L1676 245L1496 234Z" fill="#f3e0c0" stroke="#f3e0c0"></path><path d="M494 843L689 811L619 713Z" fill="#f5e7cf" stroke="#f5e7cf"></path><path d="M736 940L807 1080L932 959Z" fill="#f2d8b0" stroke="#f2d8b0"></path><path d="M638 1080L807 1080L736 940Z" fill="#f4e2c5" stroke="#f4e2c5"></path><path d="M391 706L490 751L517 650Z" fill="#f5e7cf" stroke="#f5e7cf"></path><path d="M517 650L490 751L619 713Z" fill="#f6e9d5" stroke="#f6e9d5"></path><path d="M1530 0L1402 0L1381 68Z" fill="#f2d8b0" stroke="#f2d8b0"></path><path d="M1381 68L1402 0L1290 79Z" fill="#f5e7cf" stroke="#f5e7cf"></path><path d="M1567 67L1446 225L1496 234Z" fill="#f1d6ab" stroke="#f1d6ab"></path><path d="M1662 739L1683 596L1503 668Z" fill="#f1d6ab" stroke="#f1d6ab"></path><path d="M1700 862L1662 739L1524 816Z" fill="#f1d6ab" stroke="#f1d6ab"></path><path d="M1524 816L1662 739L1503 668Z" fill="#f7eedf" stroke="#f7eedf"></path><path d="M664 79L482 67L534 250Z" fill="#f6e9d5" stroke="#f6e9d5"></path><path d="M757 0L679 0L664 79Z" fill="#f7eedf" stroke="#f7eedf"></path><path d="M1764 466L1690 368L1665 522Z" fill="#f3ddbb" stroke="#f3ddbb"></path><path d="M1665 522L1690 368L1522 457Z" fill="#f3e0c0" stroke="#f3e0c0"></path><path d="M1436 1080L1395 914L1311 982Z" fill="#f4e2c5" stroke="#f4e2c5"></path><path d="M490 751L494 843L619 713Z" fill="#f4e2c5" stroke="#f4e2c5"></path><path d="M534 250L411 354L475 396Z" fill="#f5e4ca" stroke="#f5e4ca"></path><path d="M475 396L390 561L548 515Z" fill="#f7eedf" stroke="#f7eedf"></path><path d="M490 751L394 812L494 843Z" fill="#f3e0c0" stroke="#f3e0c0"></path><path d="M365 246L411 354L534 250Z" fill="#f2dbb5" stroke="#f2dbb5"></path><path d="M370 429L390 561L475 396Z" fill="#f6e9d5" stroke="#f6e9d5"></path><path d="M1252 1080L1436 1080L1311 982Z" fill="#f3ddbb" stroke="#f3ddbb"></path><path d="M1690 368L1676 245L1548 348Z" fill="#f3e0c0" stroke="#f3e0c0"></path><path d="M1676 245L1567 67L1496 234Z" fill="#f6ecda" stroke="#f6ecda"></path><path d="M390 561L391 706L517 650Z" fill="#f4e2c5" stroke="#f4e2c5"></path><path d="M411 354L370 429L475 396Z" fill="#f4e2c5" stroke="#f4e2c5"></path><path d="M390 561L234 609L391 706Z" fill="#f2dbb5" stroke="#f2dbb5"></path><path d="M495 937L643 969L494 843Z" fill="#f2d8b0" stroke="#f2d8b0"></path><path d="M517 1080L638 1080L643 969Z" fill="#f5e7cf" stroke="#f5e7cf"></path><path d="M643 969L638 1080L736 940Z" fill="#f2dbb5" stroke="#f2dbb5"></path><path d="M1634 0L1530 0L1567 67Z" fill="#f7eedf" stroke="#f7eedf"></path><path d="M1567 67L1530 0L1381 68Z" fill="#f6ecda" stroke="#f6ecda"></path><path d="M389 920L495 937L494 843Z" fill="#f5e4ca" stroke="#f5e4ca"></path><path d="M1767 628L1764 466L1683 596Z" fill="#f2dbb5" stroke="#f2dbb5"></path><path d="M1683 596L1764 466L1665 522Z" fill="#f4e2c5" stroke="#f4e2c5"></path><path d="M1690 368L1832 278L1676 245Z" fill="#f7eedf" stroke="#f7eedf"></path><path d="M1512 986L1633 944L1524 816Z" fill="#f7eedf" stroke="#f7eedf"></path><path d="M1662 739L1767 628L1683 596Z" fill="#f2dbb5" stroke="#f2dbb5"></path><path d="M1577 1080L1633 944L1512 986Z" fill="#f3e0c0" stroke="#f3e0c0"></path><path d="M1766 735L1767 628L1662 739Z" fill="#f5e7cf" stroke="#f5e7cf"></path><path d="M1633 944L1700 862L1524 816Z" fill="#f3ddbb" stroke="#f3ddbb"></path><path d="M389 920L203 854L278 999Z" fill="#f3ddbb" stroke="#f3ddbb"></path><path d="M391 706L394 812L490 751Z" fill="#f3e0c0" stroke="#f3e0c0"></path><path d="M679 0L546 0L664 79Z" fill="#f5e4ca" stroke="#f5e4ca"></path><path d="M411 354L216 323L370 429Z" fill="#f2dbb5" stroke="#f2dbb5"></path><path d="M1920 485L1784 397L1764 466Z" fill="#f7eedf" stroke="#f7eedf"></path><path d="M1764 466L1784 397L1690 368Z" fill="#f1d6ab" stroke="#f1d6ab"></path><path d="M1676 245L1661 74L1567 67Z" fill="#f5e7cf" stroke="#f5e7cf"></path><path d="M546 0L482 67L664 79Z" fill="#f3ddbb" stroke="#f3ddbb"></path><path d="M1700 862L1766 735L1662 739Z" fill="#f7eedf" stroke="#f7eedf"></path><path d="M1920 369L1832 278L1784 397Z" fill="#f6e9d5" stroke="#f6e9d5"></path><path d="M1757 164L1661 74L1676 245Z" fill="#f2dbb5" stroke="#f2dbb5"></path><path d="M482 67L365 246L534 250Z" fill="#f3ddbb" stroke="#f3ddbb"></path><path d="M1436 1080L1577 1080L1512 986Z" fill="#f6e9d5" stroke="#f6e9d5"></path><path d="M1633 944L1745 937L1700 862Z" fill="#f1d6ab" stroke="#f1d6ab"></path><path d="M1661 74L1634 0L1567 67Z" fill="#f7eedf" stroke="#f7eedf"></path><path d="M1747 0L1634 0L1661 74Z" fill="#f5e7cf" stroke="#f5e7cf"></path><path d="M356 1080L517 1080L495 937Z" fill="#f7eedf" stroke="#f7eedf"></path><path d="M495 937L517 1080L643 969Z" fill="#f6ecda" stroke="#f6ecda"></path><path d="M394 812L389 920L494 843Z" fill="#f6ecda" stroke="#f6ecda"></path><path d="M221 679L394 812L391 706Z" fill="#f7eedf" stroke="#f7eedf"></path><path d="M1832 278L1757 164L1676 245Z" fill="#f6ecda" stroke="#f6ecda"></path><path d="M1643 1080L1745 937L1633 944Z" fill="#f1d6ab" stroke="#f1d6ab"></path><path d="M1700 862L1813 844L1766 735Z" fill="#f5e4ca" stroke="#f5e4ca"></path><path d="M1577 1080L1643 1080L1633 944Z" fill="#f5e7cf" stroke="#f5e7cf"></path><path d="M430 0L382 83L482 67Z" fill="#f7eedf" stroke="#f7eedf"></path><path d="M482 67L382 83L365 246Z" fill="#f1d6ab" stroke="#f1d6ab"></path><path d="M1784 397L1832 278L1690 368Z" fill="#f2d8b0" stroke="#f2d8b0"></path><path d="M1920 485L1764 466L1767 628Z" fill="#f2dbb5" stroke="#f2dbb5"></path><path d="M1920 485L1767 628L1920 608Z" fill="#f5e7cf" stroke="#f5e7cf"></path><path d="M1920 802L1813 844L1920 910Z" fill="#f1d6ab" stroke="#f1d6ab"></path><path d="M1745 937L1813 844L1700 862Z" fill="#f2d8b0" stroke="#f2d8b0"></path><path d="M546 0L430 0L482 67Z" fill="#f5e7cf" stroke="#f5e7cf"></path><path d="M225 520L390 561L370 429Z" fill="#f2dbb5" stroke="#f2dbb5"></path><path d="M225 520L234 609L390 561Z" fill="#f3ddbb" stroke="#f3ddbb"></path><path d="M225 520L370 429L216 323Z" fill="#f1d6ab" stroke="#f1d6ab"></path><path d="M216 323L411 354L365 246Z" fill="#f7eedf" stroke="#f7eedf"></path><path d="M382 83L257 237L365 246Z" fill="#f2d8b0" stroke="#f2d8b0"></path><path d="M247 84L257 237L382 83Z" fill="#f6ecda" stroke="#f6ecda"></path><path d="M110 610L221 679L234 609Z" fill="#f6ecda" stroke="#f6ecda"></path><path d="M234 609L221 679L391 706Z" fill="#f1d6ab" stroke="#f1d6ab"></path><path d="M1920 608L1767 628L1920 668Z" fill="#f2d8b0" stroke="#f2d8b0"></path><path d="M1920 232L1757 164L1832 278Z" fill="#f1d6ab" stroke="#f1d6ab"></path><path d="M1920 133L1747 0L1757 164Z" fill="#f6e9d5" stroke="#f6e9d5"></path><path d="M1757 164L1747 0L1661 74Z" fill="#f2dbb5" stroke="#f2dbb5"></path><path d="M1920 668L1767 628L1766 735Z" fill="#f6ecda" stroke="#f6ecda"></path><path d="M257 237L216 323L365 246Z" fill="#f5e7cf" stroke="#f5e7cf"></path><path d="M225 520L110 610L234 609Z" fill="#f4e2c5" stroke="#f4e2c5"></path><path d="M1920 802L1920 668L1766 735Z" fill="#f4e2c5" stroke="#f4e2c5"></path><path d="M1920 485L1920 369L1784 397Z" fill="#f6e9d5" stroke="#f6e9d5"></path><path d="M278 999L356 1080L389 920Z" fill="#f5e7cf" stroke="#f5e7cf"></path><path d="M389 920L356 1080L495 937Z" fill="#f5e4ca" stroke="#f5e4ca"></path><path d="M147 193L216 323L257 237Z" fill="#f7eedf" stroke="#f7eedf"></path><path d="M147 193L175 348L216 323Z" fill="#f3e0c0" stroke="#f3e0c0"></path><path d="M216 323L175 348L225 520Z" fill="#f1d6ab" stroke="#f1d6ab"></path><path d="M1920 910L1813 844L1745 937Z" fill="#f6ecda" stroke="#f6ecda"></path><path d="M1813 844L1920 802L1766 735Z" fill="#f5e7cf" stroke="#f5e7cf"></path><path d="M1920 369L1920 232L1832 278Z" fill="#f6ecda" stroke="#f6ecda"></path><path d="M203 854L389 920L394 812Z" fill="#f2d8b0" stroke="#f2d8b0"></path><path d="M105 681L203 854L221 679Z" fill="#f2dbb5" stroke="#f2dbb5"></path><path d="M221 679L203 854L394 812Z" fill="#f1d6ab" stroke="#f1d6ab"></path><path d="M223 0L247 84L382 83Z" fill="#f3e0c0" stroke="#f3e0c0"></path><path d="M175 348L135 495L225 520Z" fill="#f6e9d5" stroke="#f6e9d5"></path><path d="M1920 232L1920 133L1757 164Z" fill="#f5e4ca" stroke="#f5e4ca"></path><path d="M1832 1080L1920 910L1745 937Z" fill="#f6ecda" stroke="#f6ecda"></path><path d="M1643 1080L1832 1080L1745 937Z" fill="#f1d6ab" stroke="#f1d6ab"></path><path d="M135 495L110 610L225 520Z" fill="#f5e4ca" stroke="#f5e4ca"></path><path d="M110 610L105 681L221 679Z" fill="#f5e7cf" stroke="#f5e7cf"></path><path d="M125 944L254 1080L278 999Z" fill="#f5e7cf" stroke="#f5e7cf"></path><path d="M0 361L0 460L135 495Z" fill="#f7eedf" stroke="#f7eedf"></path><path d="M135 495L0 460L110 610Z" fill="#f5e4ca" stroke="#f5e4ca"></path><path d="M247 84L147 193L257 237Z" fill="#f6ecda" stroke="#f6ecda"></path><path d="M125 944L278 999L203 854Z" fill="#f5e4ca" stroke="#f5e4ca"></path><path d="M278 999L254 1080L356 1080Z" fill="#f3e0c0" stroke="#f3e0c0"></path><path d="M430 0L223 0L382 83Z" fill="#f6ecda" stroke="#f6ecda"></path><path d="M247 84L121 110L147 193Z" fill="#f7eedf" stroke="#f7eedf"></path><path d="M1920 133L1920 0L1747 0Z" fill="#f5e7cf" stroke="#f5e7cf"></path><path d="M105 681L109 865L203 854Z" fill="#f4e2c5" stroke="#f4e2c5"></path><path d="M223 0L180 0L247 84Z" fill="#f2d8b0" stroke="#f2d8b0"></path><path d="M1832 1080L1920 1080L1920 910Z" fill="#f5e7cf" stroke="#f5e7cf"></path><path d="M180 0L121 110L247 84Z" fill="#f3e0c0" stroke="#f3e0c0"></path><path d="M0 361L135 495L175 348Z" fill="#f3e0c0" stroke="#f3e0c0"></path><path d="M110 610L0 642L105 681Z" fill="#f3e0c0" stroke="#f3e0c0"></path><path d="M109 865L125 944L203 854Z" fill="#f2d8b0" stroke="#f2d8b0"></path><path d="M0 361L175 348L147 193Z" fill="#f4e2c5" stroke="#f4e2c5"></path><path d="M105 681L0 820L109 865Z" fill="#f6ecda" stroke="#f6ecda"></path><path d="M109 865L0 1002L125 944Z" fill="#f3ddbb" stroke="#f3ddbb"></path><path d="M0 460L0 642L110 610Z" fill="#f2d8b0" stroke="#f2d8b0"></path><path d="M0 194L0 361L147 193Z" fill="#f1d6ab" stroke="#f1d6ab"></path><path d="M0 642L0 703L105 681Z" fill="#f5e4ca" stroke="#f5e4ca"></path><path d="M0 703L0 820L105 681Z" fill="#f4e2c5" stroke="#f4e2c5"></path><path d="M125 944L78 1080L254 1080Z" fill="#f2d8b0" stroke="#f2d8b0"></path><path d="M0 85L0 194L121 110Z" fill="#f1d6ab" stroke="#f1d6ab"></path><path d="M121 110L0 194L147 193Z" fill="#f6e9d5" stroke="#f6e9d5"></path><path d="M0 1002L78 1080L125 944Z" fill="#f6e9d5" stroke="#f6e9d5"></path><path d="M0 0L0 85L121 110Z" fill="#f1d6ab" stroke="#f1d6ab"></path><path d="M0 820L0 1002L109 865Z" fill="#f6ecda" stroke="#f6ecda"></path><path d="M180 0L0 0L121 110Z" fill="#f2dbb5" stroke="#f2dbb5"></path><path d="M0 1002L0 1080L78 1080Z" fill="#f7eedf" stroke="#f7eedf"></path></g></svg>