<svg id="Layer_1" data-name="Layer 1" xmlns="http://www.w3.org/2000/svg" xmlns:xlink="http://www.w3.org/1999/xlink" viewBox="0 0 150.03 119.12" width="406" height="306" class="illustration styles_illustrationTablet__1DWOa"><defs><linearGradient id="linear-gradient" x1="109.42" y1="279.71" x2="89.4" y2="-242.87" gradientUnits="userSpaceOnUse"><stop offset="0.01"></stop><stop offset="0.08" stop-opacity="0.69"></stop><stop offset="0.21" stop-opacity="0.32"></stop><stop offset="1" stop-opacity="0"></stop></linearGradient><linearGradient id="linear-gradient-2" x1="2931.51" y1="-383.3" x2="3007.47" y2="-386.66" gradientTransform="matrix(-0.89, 0.47, 0.47, 0.89, 2923.28, -938.06)" xlink:href="#linear-gradient"></linearGradient><linearGradient id="linear-gradient-3" x1="65.95" y1="41.03" x2="149.29" y2="100.1" xlink:href="#linear-gradient"></linearGradient><linearGradient id="linear-gradient-4" x1="115.9" y1="53.18" x2="103.45" y2="77.27" xlink:href="#linear-gradient"></linearGradient><linearGradient id="linear-gradient-5" x1="120.41" y1="58.74" x2="87.44" y2="94.69" xlink:href="#linear-gradient"></linearGradient><linearGradient id="linear-gradient-6" x1="2896.52" y1="45.11" x2="2970.66" y2="131.41" gradientTransform="matrix(-1, 0, 0, 1, 3022.74, 0)" xlink:href="#linear-gradient"></linearGradient></defs><title>9</title><path d="M42.22,122.42a32.35,32.35,0,0,1-14.89-6.6c-5.09-4-10.61-9.39-10.44-16.08.18-7.09,2.83-13.92,5.7-20.32,3.88-8.62,9.27-17.72,7.84-27.33S30.93,31,36,22.83C43.94,10,58,6.9,72,6.61c9.24-.19,18.77.36,27.19,4.17,8.86,4,16,11.39,25,14.83,6,2.26,12.57,2.7,18.44,5.25,7.39,3.21,13.08,9.57,16.78,16.73s5.57,15.11,7,23c2.34,13.34-3.22,30-11.24,40.93-5.33,7.26-14.28,15.67-23.47,13.91C84.9,116.51,93.89,130.77,42.22,122.42Z" transform="translate(-16.88 -6.58)" fill="#FFE0A3" opacity="0.18" style="isolation: isolate;"></path><path d="M60.31,118.05h62c-.1.56-.29,1.07-.4,1.63A116.14,116.14,0,0,0,141,118.5a14,14,0,0,0,4-1c.63-.3,1.31-1,1-1.59a1.45,1.45,0,0,0-1-.55q-5.56-1.11-11.2-1.84a7.57,7.57,0,0,1-3.63-1.1c-1.47-1.08-1.93-3.09-1.94-4.92a30.28,30.28,0,0,0,0-5.47c-.85-4.64-4-8.84-1.88-13.07,1.9-3.86,5.39-6.91,6.53-11.06.79-2.88.34-5.93-.12-8.87l-1.5-9.73a16.45,16.45,0,0,0-1.7-6,4.8,4.8,0,0,0-1.3-1.6c-.62-.41-.88-.15-1.48-.36-1.31-.46-2.38-1.65-3.79-.49A72.57,72.57,0,0,0,123,40.76,11.56,11.56,0,0,0,122,35.92a11.69,11.69,0,0,0-2.1-2.61q-2-2-4.06-3.83A22.37,22.37,0,0,0,112.66,27c-3.59-2.26-7.17-2.19-11.17-1.62-4.39.64-9.11.19-13.51,0s-9-.57-13.51-.53a61.82,61.82,0,0,0-6.66.39c-.62.07-6.23.68-6.27,1.18-.8,9.18,3.12,18,6.11,26.73C71.46,64.25,73.85,76,73,87.72S68.58,109.72,60.31,118.05Z" transform="translate(-16.88 -6.58)" fill="url(#linear-gradient)"></path><path d="M141.22,110.62c-.25.71-.66,1.5-.29,2.16a.31.31,0,0,0,.15.15.38.38,0,0,0,.31,0c1.59-.62,2.5-2.27,3.17-3.85a1.87,1.87,0,0,0,.2-1.24,2,2,0,0,0-.88-.94,12.45,12.45,0,0,1-1.59-1.4c.14.16-.28,1.19-.35,1.37a6.51,6.51,0,0,0-.51,1.15,10.71,10.71,0,0,0,.07,1.13A4.8,4.8,0,0,1,141.22,110.62Z" transform="translate(-16.88 -6.58)" fill="#a0685b"></path><path d="M124.22,116c-.43.47-1,.89-1.08,1.51a.56.56,0,0,0,0,.34c.14.28.55.26.85.17a10.76,10.76,0,0,0,3.25-1.82,1.22,1.22,0,0,0,.34-.34,1,1,0,0,0,0-.64l-.26-1.56a.2.2,0,0,0-.06-.13.15.15,0,0,0-.13,0,6.25,6.25,0,0,0-1.22,0c-.55,0-.58.06-.69.57A4.36,4.36,0,0,1,124.22,116Z" transform="translate(-16.88 -6.58)" fill="#a0685b"></path><path d="M127.79,117.18a.4.4,0,0,1-.05.22.46.46,0,0,1-.27.15,7.78,7.78,0,0,0-1.51.73,23.26,23.26,0,0,1-3.14,1.29,1.84,1.84,0,0,1-1.43.11.31.31,0,0,1-.14-.11.46.46,0,0,1,0-.26,4.11,4.11,0,0,1,1.06-2,2.38,2.38,0,0,1,.67-.56,1,1,0,0,1,.85-.06c.29.13.49.45.8.54a1.19,1.19,0,0,0,.94-.21,7,7,0,0,0,1-.65c.23-.19.51-.56.8-.63C128,115.6,127.81,116.79,127.79,117.18Z" transform="translate(-16.88 -6.58)" fill="#FFE0A3"></path><path d="M145.53,108.38a.49.49,0,0,1,.1.25.56.56,0,0,1-.17.31,9.61,9.61,0,0,0-1,1.65,26.64,26.64,0,0,1-2.15,3.23,2.16,2.16,0,0,1-1.3,1,.44.44,0,0,1-.2,0,.42.42,0,0,1-.18-.23,4.76,4.76,0,0,1-.26-2.57,2.6,2.6,0,0,1,.27-1,1.16,1.16,0,0,1,.77-.6c.37-.06.75.11,1.11,0a1.44,1.44,0,0,0,.76-.81,8.3,8.3,0,0,0,.49-1.23,3.24,3.24,0,0,1,.36-1.1C144.7,106.77,145.3,108,145.53,108.38Z" transform="translate(-16.88 -6.58)" fill="#FFE0A3"></path><path d="M137.87,83.05a10.28,10.28,0,0,1-1.3,6.58c-.87,1.46-1,3.21-1.83,4.61a2.31,2.31,0,0,0-.38.92,2.09,2.09,0,0,0,.8,1.49l5.32,5.55a7.06,7.06,0,0,1,2.08,3.14,2.43,2.43,0,0,1-1.64,3l-11.57-6.81a12.08,12.08,0,0,1-2.83-8.12c.15-2,4.22-12,4.22-12a26.3,26.3,0,0,1,4.42-2.9c.87-.39.91-.16,1.41.69a9.76,9.76,0,0,1,.89,2A10.52,10.52,0,0,1,137.87,83.05Z" transform="translate(-16.88 -6.58)" fill="#FFE0A3"></path><path d="M130.74,81.42s-4.27,10-4.22,12c.12,5.54,2.83,8.12,2.83,8.12q-.43,5.83-.85,11.68c-1.26.69-3.13,1.25-3.86,0a2.7,2.7,0,0,1-.3-1.16q-.63-6.23-1.28-12.44a29.28,29.28,0,0,1-.12-7.42l0-.21v0s0,0,0,0,.13-.62.3-1.29v0c.49-1.94,1.55-5.53,3.2-7.6a15.27,15.27,0,0,0,4.24-1.59Z" transform="translate(-16.88 -6.58)" fill="#FFE0A3"></path><path d="M130.74,81.42s-4.27,10-4.22,12c.12,5.54,2.83,8.12,2.83,8.12q-.43,5.83-.85,11.68c-1.26.69-3.13,1.25-3.86,0a2.7,2.7,0,0,1-.3-1.16q-.63-6.23-1.28-12.44a29.28,29.28,0,0,1-.12-7.42l0-.21v0s0,0,0,0,.13-.62.3-1.29v0c.49-1.94,1.55-5.53,3.2-7.6a15.27,15.27,0,0,0,4.24-1.59Z" transform="translate(-16.88 -6.58)" fill="url(#linear-gradient-2)"></path><path d="M135.91,58a9.64,9.64,0,0,1-3.07,2c-.27-1,.3-1.4.3-1.4.59.05,1.37-1.4,1.12-1.85s-.75-.36-1-.12a2.76,2.76,0,0,1-1.05-1.94c0-.44.73-1.7-.74-2.24a7,7,0,0,0-3.55,0c-.1,0,0-.84,0-.89a2.25,2.25,0,0,1,.8-1.1,3.69,3.69,0,0,1,1.58-.23c.75,0,1.51-.07,2.26-.07a5.72,5.72,0,0,1,2.26.32,4.61,4.61,0,0,1,2.41,3.77,3.29,3.29,0,0,0,.28,1.19c.19.37.55.64.74,1,.32.66.07,1.47.3,2.16a3.31,3.31,0,0,1,1.13.47,1.13,1.13,0,0,1,.47,1.07,1.78,1.78,0,0,1,.61.8.61.61,0,0,1-.44.78,3.67,3.67,0,0,1,.83.74,1.14,1.14,0,0,1,.18,1,1.72,1.72,0,0,1-1.05.82,2.47,2.47,0,0,1,1,.61.82.82,0,0,1,0,1.07.94.94,0,0,1,1.23.94,1.44,1.44,0,0,1,1.84,1.17,2.78,2.78,0,0,1-.47,1.48c-.19.37-.43.77-.84.87.2.3,0,.71-.29,1s-.39.77-.69,1.1a3.52,3.52,0,0,1-1.31.73,6.39,6.39,0,0,1-3.13.25,6.09,6.09,0,0,1-3.68-1.81c-1.42-1.58-1.61-3.87-2-5.95a1.21,1.21,0,0,0-.3-.69c-.41-.39-1.08-.08-1.65-.09-1,0-1.64-1.1-1.67-2.08a13.26,13.26,0,0,1,.58-2.88,2.83,2.83,0,0,0-.61-2.73c-.28-.24-.63-.39-.92-.6-1.33-1-1.25-3.15-.12-4.33a5.11,5.11,0,0,1,4.56-1.19c1.29.23,4.21.95,4.81,2.14S136.67,56.94,135.91,58Z" transform="translate(-16.88 -6.58)" fill="#473f47"></path><path d="M126.06,64.18l-6.23,6.42-8.29-4.37a6.2,6.2,0,0,0-3.41-.91c-.12,0-.28.07-.26.19s.17.13.19.23-.11.17-.22.2l-2,.45c-.29.06-.64.2-.66.5a.67.67,0,0,0,.3.49,6.6,6.6,0,0,0,4.83,1.16,2.09,2.09,0,0,1,.5,0,1.49,1.49,0,0,1,.45.19c.64.36,1.26.74,1.86,1.16,1.62,1.15,3.08,2.52,4.73,3.63A2.42,2.42,0,0,0,119,74a2.67,2.67,0,0,0,1.07-.26c2.38-1,4.82-2,6.63-3.78a1.74,1.74,0,0,0,.38-.52,1.77,1.77,0,0,0,.1-.61c0-.87,0-1.74,0-2.61a2.51,2.51,0,0,0-.25-1.15.9.9,0,0,0-1-.46" transform="translate(-16.88 -6.58)" fill="#a0685b"></path><path d="M122.12,71a2.94,2.94,0,0,1-.66.39,4,4,0,0,1-1.62.16,14.63,14.63,0,0,0-2.47.15,1.24,1.24,0,0,0-.58.18.48.48,0,0,0-.21.53.77.77,0,0,0,.24.27,4.7,4.7,0,0,0,2.22,1.2,4.76,4.76,0,0,0,2.86-.92l1.82-1.07a1.94,1.94,0,0,0,.7-.57c.25-.39.31-1.49-.31-1.6S122.52,70.66,122.12,71Z" transform="translate(-16.88 -6.58)" fill="#78433b"></path><path d="M127,62.57a1.63,1.63,0,0,1,.37-.08,14.47,14.47,0,0,1,2,.12c.89,0,1.78.06,2.66,0,1.7,0,4.48-.22,6,1.62s.77,4.48.1,6.46c-.34,1-1,1.85-1.3,2.81a10.28,10.28,0,0,0-.09,3.91,2.85,2.85,0,0,0,.17.83c.23.55.76,1,.92,1.52a1.75,1.75,0,0,1-.6,1.67,5,5,0,0,1-1.64.87c-.71.28-1.42.55-2.15.77a16.6,16.6,0,0,1-7.25.43.62.62,0,0,1-.58-.88,16.11,16.11,0,0,0-.28-5.58c-.37-1.64-1.33-2.9-1.64-4.56a7.17,7.17,0,0,1,0-3.62c.06-.15.28-.26.3-.42s-.25-.57-.34-.76a10.94,10.94,0,0,1-.7-1.94.5.5,0,0,1,0-.32.57.57,0,0,1,.18-.2c.69-.56,1.39-1.12,2.13-1.62A7.68,7.68,0,0,1,127,62.57Z" transform="translate(-16.88 -6.58)" fill="#fff"></path><path d="M132.86,58.34c-.35,1.12-1.82,3.1-3.51,2.64a2.17,2.17,0,0,1-.13,2.31s.55,1.39,4.24-.67c0,0-1-.09-.72-2.14a4.39,4.39,0,0,1,.72-2A.36.36,0,0,1,132.86,58.34Z" transform="translate(-16.88 -6.58)" fill="#a0685b"></path><path d="M132.69,58.9s-.81,3.45-2.18,3.31S129.22,60,129.22,60Z" transform="translate(-16.88 -6.58)" fill="#78433b"></path><path d="M129.06,50.44s-2.24.13-2.91,3.38A2.48,2.48,0,0,0,128.72,57l2-5.63Z" transform="translate(-16.88 -6.58)" fill="#473f47"></path><path d="M130.55,61.14c-2,.17-3.26-1.72-3.49-4.2,0-.27,0-.54,0-.83a10.49,10.49,0,0,1,.27-2.39c.89-3.8,6.3-2.28,6.3-2.28C137.83,53.35,134.08,60.85,130.55,61.14Z" transform="translate(-16.88 -6.58)" fill="#a0685b"></path><path d="M129.1,51.36c.53,1.83,1.23,4.44,3,5.45a1.52,1.52,0,0,0,.82.25c.28-.05.25-.27.46-.46a.48.48,0,0,1,.54-.1.59.59,0,0,1,.23.49,1.34,1.34,0,0,1-.63,1.12,3.2,3.2,0,0,0-.51.29,1,1,0,0,0-.3.66,1.76,1.76,0,0,0,.88,1.69.25.25,0,0,0,.12,0,.2.2,0,0,0,.13-.08l.8-.73a7.08,7.08,0,0,0,1-1.09,3.36,3.36,0,0,0,.57-1.84c0-.3-.12-.6-.12-.89a4.78,4.78,0,0,1,.3-1.09,3.69,3.69,0,0,0,.27-1.42A2.78,2.78,0,0,0,135,51.52a10.17,10.17,0,0,0-4.42-.76,2.19,2.19,0,0,0-.88.12C129.45,51,129.34,51.27,129.1,51.36Z" transform="translate(-16.88 -6.58)" fill="#473f47"></path><path d="M132.69,74.45l1.55,3.41a28.49,28.49,0,0,0,4.6-8.64c1.11-4-.86-5-.86-5-1.5-.55-2.52,1.59-4,5.92C133.17,72.56,132.69,74.45,132.69,74.45Z" transform="translate(-16.88 -6.58)" fill="#a0685b"></path><path d="M139.44,65.62a11.07,11.07,0,0,1,.48,2.23l.14,1a1.15,1.15,0,0,1,0,.64c-.17.36-.85.21-1.19.27l-1.81.28c-1.21.19-2.41.37-3.62.54a6.81,6.81,0,0,1,0-1.86c.11-.58.36-1.12.5-1.7s.16-1,.28-1.41a4.45,4.45,0,0,1,1.65-2.44c1.28-.93,3.14,1.32,3.53,2.33A1,1,0,0,0,139.44,65.62Z" transform="translate(-16.88 -6.58)" fill="#fff" style="isolation: isolate;"></path><polygon points="100.09 109.31 41.08 109.31 41.08 20.27 87.67 20.27 100.09 33.13 100.09 109.31" fill="#fff"></polygon><polygon points="87.67 20.27 100.09 33.13 87.75 33.13 87.67 20.27" fill="#fff"></polygon><polygon points="87.67 20.27 100.09 33.13 87.75 33.13 87.67 20.27" fill="#FFE0A3"></polygon><g opacity="0.41"><rect x="47.79" y="66.45" width="9.28" height="8.08" fill="#FFE0A3"></rect></g><rect x="56.99" y="60.16" width="9.28" height="14.37" fill="#FFE0A3"></rect><g opacity="0.5"><rect x="66.19" y="53.53" width="9.28" height="21" fill="#FFE0A3"></rect></g><rect x="75.4" y="47.07" width="9.28" height="27.46" fill="#FFE0A3"></rect><rect x="84.6" y="40.56" width="9.28" height="33.97" fill="#FFE0A3"></rect><rect x="84.6" y="40.56" width="9.28" height="33.97" fill="url(#linear-gradient-3)"></rect><path d="M104.4,63s3.38-4.49,7.76-1.82,1.28,8.08,1.28,8.08l3.35-3.78s-.07-4.83-2.57-6.42-7-1.46-7-1.46l-2.81,3.88Z" transform="translate(-16.88 -6.58)" fill="url(#linear-gradient-4)"></path><path d="M101.93,64.64a6.25,6.25,0,0,0,3.26,7.51,9.3,9.3,0,0,0,7.53.36L116.19,76l.75,1.26-.12-4.65-2.6-3.86s-9,6.19-11-5.39C103.19,63.38,102.27,63.08,101.93,64.64Z" transform="translate(-16.88 -6.58)" fill="url(#linear-gradient-5)"></path><path d="M121.78,75.12a1.1,1.1,0,0,1,0,1.54h0a1.1,1.1,0,0,1-1.54,0l-6.81-6.53a1.09,1.09,0,0,1,0-1.53h0a1.08,1.08,0,0,1,1.54,0Z" transform="translate(-16.88 -6.58)" fill="#FFE0A3"></path><path d="M109.44,57.13a7.51,7.51,0,1,0,7.5,7.51A7.51,7.51,0,0,0,109.44,57.13Zm0,13.12a5.61,5.61,0,1,1,5.61-5.61A5.62,5.62,0,0,1,109.44,70.25Z" transform="translate(-16.88 -6.58)" fill="#FFE0A3"></path><path d="M109.44,57.13a7.51,7.51,0,1,0,7.5,7.51A7.51,7.51,0,0,0,109.44,57.13Zm0,13.12a5.61,5.61,0,1,1,5.61-5.61A5.62,5.62,0,0,1,109.44,70.25Z" transform="translate(-16.88 -6.58)" fill="url(#linear-gradient-6)"></path><path d="M110,56.59a7.51,7.51,0,1,0,7.51,7.51A7.51,7.51,0,0,0,110,56.59Zm0,13.12a5.62,5.62,0,1,1,5.61-5.61A5.61,5.61,0,0,1,110,69.71Z" transform="translate(-16.88 -6.58)" fill="#FFE0A3"></path><path d="M134.24,77.86s.06-2.77-1.29-3.32-10.8-2-10.8-2l-.88,1S130.54,78.88,134.24,77.86Z" transform="translate(-16.88 -6.58)" fill="#a0685b"></path><path d="M121.14,72.29a5.08,5.08,0,0,1-.66-.18l-1.79-.64c-.08,0-.19,0-.25,0a.18.18,0,0,0,0,.14c0,.27.25.47.42.68,0,0,.07.11.05.17s-.12.1-.21.1a22,22,0,0,1-2.69,0,.69.69,0,0,0-.35,0,.25.25,0,0,0-.16.28.35.35,0,0,0,.16.16,1.9,1.9,0,0,0,.73.27,2,2,0,0,1-.77.15.52.52,0,0,0,.3.4,1.79,1.79,0,0,0,.51.11,1.57,1.57,0,0,1-.6.16c-.05.14.08.27.2.36a3.78,3.78,0,0,0,2.19.68,6,6,0,0,0,2.45,0,15.06,15.06,0,0,1,1.83-.94.76.76,0,0,0,.32-.11.55.55,0,0,0,.18-.29c.26-.86-.31-1.24-1.07-1.39Z" transform="translate(-16.88 -6.58)" fill="#a0685b"></path><rect x="49.76" y="81.23" width="42.55" height="2.67" fill="#FFE0A3"></rect><rect x="49.76" y="87.96" width="42.55" height="2.67" fill="#FFE0A3"></rect><rect x="49.76" y="94.7" width="42.55" height="2.67" fill="#FFE0A3"></rect><rect x="49.76" y="101.43" width="42.55" height="2.67" fill="#FFE0A3"></rect></svg>